<svg width="21" height="13" viewBox="0 0 21 13" fill="none" xmlns="http://www.w3.org/2000/svg">
<path d="M11.7333 11.756L20.6334 2.85574C20.8394 2.64989 20.9529 2.3751 20.9529 2.08209C20.9529 1.78909 20.8394 1.51429 20.6334 1.30844L19.9782 0.652998C19.5512 0.226497 18.8572 0.226497 18.4308 0.652998L10.9571 8.12676L3.47503 0.644704C3.26902 0.438852 2.99439 0.325195 2.70155 0.325195C2.40838 0.325195 2.13374 0.438852 1.92757 0.644704L1.27245 1.30015C1.06644 1.50616 0.952942 1.78079 0.952942 2.0738C0.952942 2.3668 1.06644 2.6416 1.27245 2.84745L10.1807 11.756C10.3873 11.9623 10.6633 12.0757 10.9566 12.075C11.2511 12.0757 11.5268 11.9623 11.7333 11.756Z" fill="#FF014F"/>
</svg>
