<svg width="33" height="32" viewBox="0 0 33 32" fill="none" xmlns="http://www.w3.org/2000/svg">
<path d="M1.08014 15.9308C1.08014 24.3778 7.93144 31.2259 16.3835 31.2259C24.8355 31.2259 31.6868 24.3778 31.6868 15.9308C31.6868 7.48382 24.8355 0.635742 16.3835 0.635742C7.93144 0.635742 1.08014 7.48382 1.08014 15.9308Z" fill="#F6F9FC" stroke="#CA2FF2"/>
<path d="M8.65992 15.278H10.0057C10.2983 12.2564 12.7168 9.83915 15.7399 9.54674V8.20166C11.9756 8.51356 8.97199 11.5156 8.65992 15.278Z" fill="#FF4A4A"/>
<path d="M17.0271 22.3152V23.6603C20.7914 23.3484 23.8146 20.3463 24.1071 16.584H22.7613C22.4688 19.6056 20.0503 22.0033 17.0271 22.3152Z" fill="#FF4A4A"/>
<path d="M28.3201 9.95612C28.047 9.95612 27.8325 10.1316 27.774 10.385H21.7862C20.5379 9.15686 18.8801 8.35761 17.0272 8.20166V9.54674C20.0503 9.83915 22.4688 12.2564 22.7614 15.278H24.1072C24.0877 14.9271 24.0292 14.5957 23.9512 14.2643H27.0328C27.0913 14.5177 27.3254 14.7126 27.5984 14.7126C27.9105 14.7126 28.1836 14.4592 28.1836 14.1278C28.1836 13.8159 27.93 13.543 27.5984 13.543C27.3254 13.543 27.1108 13.7185 27.0523 13.9719H23.8926C23.7366 13.3481 23.4831 12.7438 23.171 12.1784H25.9016C25.9601 12.4319 26.1941 12.6268 26.4672 12.6268C26.7793 12.6268 27.0523 12.3734 27.0523 12.042C27.0523 11.7301 26.7988 11.4572 26.4672 11.4572C26.1941 11.4572 25.9796 11.6326 25.9211 11.886H23.015C22.7419 11.4377 22.4298 11.0283 22.0788 10.6384H27.774C27.8325 10.8918 28.0665 11.0868 28.3396 11.0868C28.6517 11.0868 28.9247 10.8333 28.9247 10.5019C28.9052 10.2095 28.6517 9.95612 28.3201 9.95612Z" fill="#CA2FF2"/>
<path d="M10.0054 16.5645H8.65965C8.67916 16.9153 8.73767 17.2467 8.81568 17.5781H5.71452C5.65601 17.3247 5.42195 17.1298 5.1489 17.1298C4.83683 17.1298 4.56377 17.3832 4.56377 17.7146C4.56377 18.0265 4.81732 18.2994 5.1489 18.2994C5.42195 18.2994 5.6365 18.124 5.69501 17.8705H8.85469C9.01073 18.4944 9.26428 19.0987 9.57635 19.664H6.84576C6.78725 19.4106 6.5532 19.2156 6.28014 19.2156C5.96807 19.2156 5.69501 19.4691 5.69501 19.8005C5.69501 20.1124 5.94857 20.3853 6.28014 20.3853C6.5532 20.3853 6.76774 20.2098 6.82626 19.9564H9.73238C10.0054 20.4048 10.3175 20.8141 10.6686 21.204H4.99286C4.93435 20.9506 4.7003 20.7557 4.42724 20.7557C4.11517 20.7557 3.84212 21.0091 3.84212 21.3405C3.84212 21.6524 4.09567 21.9253 4.42724 21.9253C4.7003 21.9253 4.91485 21.7498 4.97336 21.4964H10.9611C12.2094 22.7245 13.8868 23.5043 15.7202 23.6603V22.3152C12.7165 22.0033 10.298 19.6055 10.0054 16.5645Z" fill="#CA2FF2"/>
<path d="M19.8101 15.6798C20.1008 15.3453 20.2857 14.9051 20.2857 14.4297C20.2857 13.382 19.4313 12.5369 18.3919 12.5369H15.6173C15.494 12.3608 15.2826 12.2463 15.0536 12.2463C14.6748 12.2463 14.3665 12.5545 14.3665 12.933C14.3665 13.3116 14.6748 13.6197 15.0536 13.6197C15.2826 13.6197 15.494 13.5053 15.6173 13.3292H18.3831C18.9909 13.3292 19.4842 13.8222 19.4842 14.4297C19.4842 15.0371 18.9909 15.5301 18.3831 15.5301H16.8505V13.6197H16.0489V18.2329H16.8505V16.3313H18.3919H19.0702C19.678 16.3313 20.1712 16.8243 20.1712 17.4317C20.1712 18.0392 19.678 18.5322 19.0702 18.5322H14.5075C14.3841 18.3561 14.1727 18.2417 13.9437 18.2417C13.565 18.2417 13.2567 18.5498 13.2567 18.9284C13.2567 19.3069 13.565 19.6151 13.9437 19.6151C14.1727 19.6151 14.3841 19.5006 14.5075 19.3245H19.0614C20.1096 19.3245 20.9552 18.4706 20.9552 17.4317C20.964 16.6394 20.4883 15.9703 19.8101 15.6798ZM15.0536 13.1531C14.9391 13.1531 14.8422 13.0563 14.8422 12.9418C14.8422 12.8274 14.9391 12.7305 15.0536 12.7305C15.1681 12.7305 15.265 12.8274 15.265 12.9418C15.2738 13.0563 15.1769 13.1531 15.0536 13.1531ZM13.9437 19.1309C13.8292 19.1309 13.7323 19.034 13.7323 18.9196C13.7323 18.8051 13.8292 18.7083 13.9437 18.7083C14.0582 18.7083 14.1551 18.8051 14.1551 18.9196C14.1639 19.034 14.067 19.1309 13.9437 19.1309Z" fill="#FF4A4A"/>
<path d="M13.459 15.3905C13.6881 15.3905 13.8995 15.276 14.0228 15.0998H15.5907V14.2982H14.0228C13.8995 14.1221 13.6881 14.0076 13.459 14.0076C13.0803 14.0076 12.772 14.3159 12.772 14.6946C12.7632 15.0822 13.0715 15.3905 13.459 15.3905ZM13.459 14.4832C13.5735 14.4832 13.6704 14.5801 13.6704 14.6946C13.6704 14.8091 13.5735 14.906 13.459 14.906C13.3445 14.906 13.2476 14.8091 13.2476 14.6946C13.2476 14.5801 13.3357 14.4832 13.459 14.4832Z" fill="#FF4A4A"/>
<path d="M15.6259 17.1774V16.3759H13.0626C12.9393 16.1997 12.7279 16.0852 12.4989 16.0852C12.1201 16.0852 11.8118 16.3935 11.8118 16.7723C11.8118 17.151 12.1201 17.4593 12.4989 17.4593C12.7279 17.4593 12.9393 17.3448 13.0626 17.1686H15.6259V17.1774ZM12.4989 16.9925C12.3844 16.9925 12.2875 16.8956 12.2875 16.7811C12.2875 16.6666 12.3844 16.5697 12.4989 16.5697C12.6134 16.5697 12.7103 16.6666 12.7103 16.7811C12.7191 16.8956 12.6222 16.9925 12.4989 16.9925Z" fill="#FF4A4A"/>
</svg>
