<svg width="21" height="18" viewBox="0 0 21 18" fill="none" xmlns="http://www.w3.org/2000/svg">
<path fill-rule="evenodd" clip-rule="evenodd" d="M5.53322 3.29986L2.25342 3.10498V11.3876C2.25342 11.5868 2.3442 11.6666 2.53244 11.6666H5.7281L5.53322 3.29986Z" fill="#C17D4F"/>
<path fill-rule="evenodd" clip-rule="evenodd" d="M14.3584 11.3876C14.3584 11.568 14.2742 11.6666 14.0794 11.6666H5.53326V3.10498H14.3584V11.3876Z" fill="#CE9875"/>
<path fill-rule="evenodd" clip-rule="evenodd" d="M5.53324 3.29988H2.25344L0.323402 0.630156C0.234808 0.507266 0.276878 0.404297 0.439651 0.404297H7.82086L5.53324 3.29988Z" fill="#C6865C"/>
<path fill-rule="evenodd" clip-rule="evenodd" d="M5.33722 3.29988H14.3583L16.2883 0.630156C16.3814 0.501719 16.3326 0.404297 16.1721 0.404297H7.43003L5.33722 3.29988Z" fill="#C6865C"/>
<path fill-rule="evenodd" clip-rule="evenodd" d="M10.9003 3.29986V4.4426C10.9003 4.6142 10.7597 4.75482 10.5869 4.75482H8.82966C8.65802 4.75482 8.5174 4.61416 8.5174 4.4426V3.29986L9.94579 3.10498L10.9003 3.29986Z" fill="#E27F84"/>
<path fill-rule="evenodd" clip-rule="evenodd" d="M8.5174 3.29988H10.9003L12.9931 0.404297H10.6102L8.5174 3.29988Z" fill="#C9646D"/>
<path fill-rule="evenodd" clip-rule="evenodd" d="M5.53322 3.29988H4.55658L6.64935 0.404297H7.62599L5.53322 3.29988Z" fill="#C17D4F"/>
<path fill-rule="evenodd" clip-rule="evenodd" d="M13.3817 3.29988H14.3583L16.2884 0.630156C16.3814 0.501719 16.3326 0.404297 16.1721 0.404297H15.1966C15.356 0.404297 15.4047 0.501719 15.3117 0.630156L13.3817 3.29988Z" fill="#C17D4F"/>
<path fill-rule="evenodd" clip-rule="evenodd" d="M13.3817 3.29987H14.3584V6.25076H13.3817V3.29987Z" fill="#C6865C"/>
<path fill-rule="evenodd" clip-rule="evenodd" d="M4.55658 3.29987H5.53322V11.6666H4.55658V3.29987Z" fill="#B16E3D"/>
<path fill-rule="evenodd" clip-rule="evenodd" d="M14.3583 17.5862C17.6193 17.5862 20.2779 14.9276 20.2779 11.6666C20.2779 8.4067 17.6193 5.74698 14.3583 5.74698C11.0984 5.74698 8.43872 8.4067 8.43872 11.6666C8.43872 14.9275 11.0984 17.5862 14.3583 17.5862Z" fill="#FFE07D"/>
<path fill-rule="evenodd" clip-rule="evenodd" d="M14.3584 5.74698C17.6282 5.74698 20.278 8.39784 20.278 11.6666C20.278 14.9364 17.6282 17.5862 14.3584 17.5862C14.1945 17.5862 14.0317 17.5795 13.8701 17.5662C16.9107 17.3182 19.3013 14.7714 19.3013 11.6666C19.3013 8.56174 16.9107 6.01604 13.8701 5.76694C14.0317 5.75471 14.1945 5.74698 14.3584 5.74698Z" fill="#FFD064"/>
<path d="M10.6345 12.8215C10.6345 12.9832 10.5028 13.1149 10.3411 13.1149C10.1794 13.1149 10.0488 12.9832 10.0488 12.8215V10.5482C10.0488 10.3865 10.1794 10.2559 10.3411 10.2559C10.4496 10.2559 10.5448 10.3146 10.5946 10.4021L11.6377 11.9113L11.6244 10.5471C11.6222 10.3854 11.7529 10.2537 11.9134 10.2526C12.0751 10.2515 12.2069 10.381 12.2079 10.5416L12.229 12.7163C12.2356 12.7938 12.2146 12.878 12.1726 12.9433C12.1349 13.002 12.0829 13.0441 12.0197 13.0684C11.9478 13.0961 11.8714 13.0972 11.7938 13.0673C11.7352 13.0441 11.6809 13.002 11.6377 12.94L10.6345 11.4872V12.8215H10.6345ZM14.8976 10.6268C14.8456 10.474 14.9275 10.3079 15.0803 10.2559C15.2331 10.2028 15.3992 10.2847 15.4524 10.4375L15.9672 11.9357L16.5087 10.4154C16.5629 10.2625 16.7301 10.1828 16.8818 10.236C16.9715 10.268 17.0358 10.3378 17.0624 10.4209L17.5761 11.9279L18.0999 10.433C18.1531 10.2813 18.3202 10.2005 18.4719 10.2536C18.6247 10.3068 18.7045 10.4729 18.6513 10.6257L17.8529 12.9045C17.8264 12.9931 17.7599 13.0673 17.6669 13.0983C17.513 13.1503 17.3469 13.0684 17.296 12.9155L16.7789 11.4008L16.2418 12.9067C16.2153 12.9931 16.1488 13.0673 16.0569 13.0983C15.9041 13.1514 15.7369 13.0695 15.6849 12.9167L14.8976 10.6268ZM14.0815 10.2725C14.2432 10.2725 14.3738 10.4031 14.3738 10.5648C14.3738 10.7264 14.2431 10.8582 14.0815 10.8582H13.4238V11.4009H14.0117C14.1734 11.4009 14.3041 11.5315 14.3041 11.6932C14.3041 11.8548 14.1734 11.9866 14.0117 11.9866H13.4238V12.5292H14.0815C14.2432 12.5292 14.3738 12.6598 14.3738 12.8215C14.3738 12.9832 14.2431 13.1149 14.0815 13.1149H13.1303C12.9686 13.1149 12.838 12.9832 12.838 12.8215V10.5648C12.838 10.4031 12.9687 10.2725 13.1303 10.2725H14.0815V10.2725Z" fill="#E27F84"/>
</svg>
