<svg width="20" height="15" viewBox="0 0 20 15" fill="none" xmlns="http://www.w3.org/2000/svg">
<path d="M18.0304 14.7937H1.96858C1.4465 14.7931 0.945979 14.5854 0.576832 14.2163C0.207684 13.8471 5.95166e-05 13.3465 -0.000488281 12.8245V2.9048C5.95166e-05 2.38272 0.207684 1.88218 0.576832 1.513C0.945979 1.14382 1.4465 0.936145 1.96858 0.935547H18.0304C18.5525 0.936145 19.053 1.14382 19.4222 1.513C19.7913 1.88218 19.999 2.38272 19.9995 2.9048V12.8245C19.999 13.3465 19.7913 13.8471 19.4222 14.2163C19.053 14.5854 18.5525 14.7931 18.0304 14.7937V14.7937ZM1.96858 1.68818C1.64603 1.68853 1.3368 1.81682 1.10875 2.04491C0.88069 2.27301 0.75244 2.58226 0.752141 2.9048V12.8245C0.75244 13.147 0.88069 13.4563 1.10875 13.6843C1.3368 13.9124 1.64603 14.0407 1.96858 14.0411H18.0304C18.353 14.0407 18.6622 13.9124 18.8903 13.6843C19.1183 13.4563 19.2466 13.147 19.2469 12.8245V2.9048C19.2466 2.58226 19.1183 2.27301 18.8903 2.04491C18.6622 1.81682 18.353 1.68853 18.0304 1.68818H1.96858Z" fill="#DEDEDE"/>
<path d="M9.99952 10.0793C9.90779 10.0794 9.8192 10.0459 9.7504 9.98523L0.681213 1.97951L1.17927 1.41504L9.99952 9.20174L18.8201 1.41598L19.3182 1.98045L10.249 9.98617C10.18 10.0467 10.0913 10.0798 9.99952 10.0793Z" fill="#DEDEDE"/>
<path d="M0.476562 13.6118L6.56915 6.66996L7.13512 7.1667L1.04254 14.1086L0.476562 13.6118Z" fill="#DEDEDE"/>
<path d="M12.8831 7.15967L13.449 6.66293L19.5417 13.6049L18.9758 14.1017L12.8831 7.15967Z" fill="white"/>
</svg>
