<svg width="15" height="21" viewBox="0 0 15 21" fill="none" xmlns="http://www.w3.org/2000/svg">
<path d="M7.42139 4.13477C5.48287 4.13477 3.90576 5.71187 3.90576 7.65039C3.90576 9.58891 5.48287 11.166 7.42139 11.166C9.3599 11.166 10.937 9.58891 10.937 7.65039C10.937 5.71187 9.3599 4.13477 7.42139 4.13477ZM7.42139 10.3848C5.91365 10.3848 4.68701 9.15812 4.68701 7.65039C4.68701 6.14266 5.91365 4.91602 7.42139 4.91602C8.92912 4.91602 10.1558 6.14266 10.1558 7.65039C10.1558 9.15812 8.92912 10.3848 7.42139 10.3848Z" fill="#DEDEDE"/>
<path d="M10.937 15.3066C11.1527 15.3066 11.3276 15.1318 11.3276 14.916C11.3276 14.7003 11.1527 14.5254 10.937 14.5254C10.7213 14.5254 10.5464 14.7003 10.5464 14.916C10.5464 15.1318 10.7213 15.3066 10.937 15.3066Z" fill="white"/>
<path d="M12.7308 11.6399L11.6039 13.2361C11.4794 13.4124 11.5215 13.6561 11.6977 13.7805C11.874 13.905 12.1177 13.8629 12.2421 13.6867L13.3658 12.095C14.3324 10.8041 14.8433 9.26734 14.8433 7.65039C14.8433 3.55793 11.5138 0.228516 7.42139 0.228516C3.32893 0.228516 -0.000488281 3.55793 -0.000488281 7.65039C-0.000488281 9.26734 0.510332 10.8041 1.47693 12.095L6.66744 19.4473H1.56201C1.34631 19.4473 1.17139 19.6221 1.17139 19.8379C1.17139 20.0536 1.34631 20.2285 1.56201 20.2285H13.2808C13.4965 20.2285 13.6714 20.0536 13.6714 19.8379C13.6714 19.6221 13.4965 19.4473 13.2808 19.4473H8.17533L10.2156 16.5573C10.3401 16.381 10.298 16.1373 10.1218 16.0129C9.94549 15.8884 9.70178 15.9304 9.5774 16.1067L7.42139 19.1606C7.42139 19.1606 2.10764 11.6339 2.10537 11.6309C1.23885 10.4753 0.780762 9.09887 0.780762 7.65039C0.780762 3.98875 3.75975 1.00977 7.42139 1.00977C11.083 1.00977 14.062 3.98875 14.062 7.65039C14.062 9.09887 13.6039 10.4753 12.7374 11.6309C12.7351 11.6339 12.7329 11.6369 12.7308 11.6399Z" fill="#DEDEDE"/>
</svg>
