<svg width="18" height="21" viewBox="0 0 18 21" fill="none" xmlns="http://www.w3.org/2000/svg">
<path d="M15.5829 7.02315C15.5829 3.24469 12.5199 0.181641 8.74144 0.181641C4.96298 0.181641 1.89993 3.24469 1.89993 7.02315C0.923115 7.14477 -0.000488281 7.78331 -0.000488281 9.26564V12.8384C-0.000488281 14.5108 1.17017 15.1189 2.28001 15.1189H3.38226C3.59216 15.1189 3.76234 14.9487 3.76234 14.7388V7.38042C3.76234 7.17052 3.59216 7.00034 3.38226 7.00034H2.6601C2.6601 3.64173 5.38283 0.919003 8.74144 0.919003C12.1 0.919003 14.8228 3.64173 14.8228 7.00034H14.1006C13.8907 7.00034 13.7205 7.17052 13.7205 7.38042V14.7274C13.7205 14.9373 13.8907 15.1075 14.1006 15.1075H14.8228C14.7163 17.7187 13.4621 18.3306 10.9573 18.4409V18.1862C10.9573 17.7664 10.617 17.426 10.1972 17.426H7.80643C7.38658 17.426 7.04626 17.7664 7.04626 18.1862V19.4215C7.04626 19.8413 7.38658 20.1816 7.80643 20.1816H10.2048C10.6246 20.1816 10.9649 19.8413 10.9649 19.4215V19.201C13.3747 19.0908 15.4575 18.5929 15.5829 15.0847C16.5598 14.9631 17.4834 14.3246 17.4834 12.8422V9.26944C17.4834 7.77951 16.5636 7.14477 15.5829 7.02315ZM3.00217 7.7339V14.3474H2.26101C1.69849 14.3474 0.740675 14.1497 0.740675 12.827V9.25424C0.740675 7.94295 1.68708 7.7339 2.26101 7.7339H3.00217ZM10.2048 18.8475V19.4253H7.80643V18.19H10.2048V18.8475ZM16.7232 12.8384C16.7232 14.1497 15.7768 14.3588 15.2029 14.3588H14.4807V7.76051H15.2219C15.7844 7.76051 16.7422 7.95815 16.7422 9.28084L16.7232 12.8384Z" fill="#DEDEDE"/>
</svg>
