<svg width="174" height="123" viewBox="0 0 174 123" fill="none" xmlns="http://www.w3.org/2000/svg">
<path fill-rule="evenodd" clip-rule="evenodd" d="M61.2849 42.6766H71.2938V41.803C71.4872 38.1669 72.7701 35.0949 74.7204 32.6998L67.5964 25.5759C65.7977 27.6421 64.2892 30.0598 63.1609 32.8223C61.8844 35.9459 61.4332 39.2758 61.2849 42.6766ZM68.9761 24.1092L76.0904 31.2235C78.8207 28.6447 82.4181 27.1167 86.1219 26.8298V16.7628C79.8297 17.0401 73.6438 19.535 68.9761 24.1092ZM88.1302 16.7499V26.7976C91.7695 26.9652 95.3733 28.361 98.2132 31.1687L105.321 24.0608C100.554 19.3384 94.3644 16.9498 88.1302 16.7499ZM106.694 25.534L99.5542 32.674C100.044 33.2962 100.499 33.9699 100.921 34.6952C102.372 37.2095 103.058 39.9591 103.045 42.6733H113.103C113.116 38.2539 111.994 33.77 109.625 29.6665C108.748 28.1547 107.768 26.775 106.694 25.534ZM113.019 44.6848H102.907C102.468 48.0276 100.973 51.2092 98.5614 53.6945L105.676 60.8087C109.992 56.4151 112.538 50.6708 113.019 44.6848ZM104.209 62.1852L97.0689 55.0451C96.4532 55.5351 95.7924 55.9896 95.0896 56.3958C92.6172 57.7787 90.2769 58.404 88.1333 58.5394V68.5548C92.2272 68.4065 96.3403 67.2848 100.134 65.0928C101.608 64.2418 102.971 63.2651 104.209 62.1852ZM56.8526 57.6981C54.6219 53.1852 53.368 48.1017 53.368 42.7281C53.368 24.0447 68.512 8.90071 87.1954 8.90071C105.879 8.90071 121.019 24.0447 121.019 42.7281C121.019 61.4116 105.876 76.5555 87.1954 76.5555C86.8343 76.5555 86.4765 76.5491 86.1219 76.5394V68.5516V60.4542V58.5265C82.1248 58.2235 78.9948 56.3313 77.2412 54.9903C76.2323 54.2167 75.6778 53.63 75.6778 53.63V56.5505V60.4542V65.8858V74.5441V80.2271V83.6634C79.3429 84.6917 83.2047 85.2429 87.1954 85.2429C110.675 85.2429 129.71 66.2081 129.71 42.7281C129.71 19.2482 110.675 0.213379 87.1954 0.213379C63.7122 0.213379 44.6774 19.2482 44.6774 42.7281C44.6774 54.3263 49.3225 64.8413 56.8526 72.5101V57.6981ZM71.2905 44.6848H61.2268C61.0689 55.2321 61.2397 65.8471 61.2397 76.4008C64.3085 78.7701 67.6932 80.7139 71.2938 82.1644C71.2906 69.6734 71.2905 57.1791 71.2905 44.6848Z" fill="#FF014F"/>
<path d="M162.541 105.735H173.621V101.687H158.019V105.735H162.541ZM173.769 122.37V118.322H162.541V113.977H172.291V109.93H162.541H158.022V122.37H173.769ZM151.745 101.687H146.839L141.432 116.254L136.024 101.687H131L139.361 122.517H143.378L151.745 101.687ZM124.519 122.37V101.687H119.968V122.37H124.519ZM113.189 105.882V101.687H96.0525V105.882H102.345V122.37H106.894V105.882H113.189ZM93.9107 122.37L85.0491 101.54H80.8543L71.9896 122.37H76.627C79.6566 114.939 79.7569 114.655 82.8898 107.006C86.0816 114.8 86.0285 114.709 89.1525 122.37H93.9107ZM55.3962 105.735H66.4762V101.687H50.874V105.735H55.3962ZM66.6237 122.37V118.322H55.3962V113.977H65.1459V109.93H55.3962H50.8769V122.37H66.6237ZM39.0742 108.806C39.0742 110.549 37.8057 111.732 35.5873 111.732H30.9794V105.794H35.4989C37.7143 105.794 39.0742 106.797 39.0742 108.75V108.806ZM44.3045 122.37L39.2511 114.983C41.8825 114.006 43.685 111.909 43.685 108.57V108.511C43.685 104.257 40.7586 101.685 35.8823 101.685H26.4278V122.367H30.9766V115.75H34.5548L38.9856 122.367H44.3045V122.37ZM19.7077 119.03L16.8109 116.104C15.1884 117.582 13.737 118.526 11.3741 118.526C7.82826 118.526 5.37682 115.573 5.37682 112.027V111.968C5.37682 108.422 7.88725 105.525 11.3741 105.525C13.442 105.525 15.0675 106.413 16.6634 107.862L19.5602 104.522C17.6368 102.631 15.3035 101.331 11.4036 101.331C5.05238 101.331 0.618591 106.148 0.618591 112.027V112.086C0.618591 118.024 5.14085 122.724 11.2266 122.724C15.2179 122.724 17.5808 121.305 19.7077 119.03Z" fill="white"/>
</svg>
