<svg width="90" height="101" viewBox="0 0 90 101" fill="none" xmlns="http://www.w3.org/2000/svg">
<path fill-rule="evenodd" clip-rule="evenodd" d="M19.5998 58.4972L26.4261 70.3201H12.7736L19.5998 58.4972ZM53.9658 70.3234L52.4169 67.6451L63.6653 48.1636L76.4625 70.3267H53.9658V70.3234ZM61.294 83.0117L58.226 77.6947H89.2002C74.3356 51.9549 59.481 26.2085 44.6197 0.46875C29.7585 26.2085 14.9038 51.9549 0.0424805 77.6947H30.6865L43.837 100.469L61.294 83.0117ZM44.623 33.4608C41.2181 39.3591 37.8133 45.2574 34.4084 51.1557L38.6488 58.4972C42.0504 52.5989 45.4585 46.7006 48.8633 40.8023L44.623 33.4608ZM45.4023 88.474L23.8468 51.1392C30.7689 39.1544 37.6943 27.1729 44.6164 15.1814L59.4149 40.8089L43.9228 67.6385C46.6474 72.3545 49.3686 77.0671 52.0899 81.7831L45.4023 88.474Z" fill="white"/>
</svg>
