<svg width="101" height="59" viewBox="0 0 101 59" fill="none" xmlns="http://www.w3.org/2000/svg">
<path fill-rule="evenodd" clip-rule="evenodd" d="M45.1406 0.124726L73.6317 36.8596C73.7617 37.0586 73.9102 37.247 74.0694 37.4247C74.8973 38.3322 76.086 38.9 77.41 38.9C81.0317 38.9 83.1199 34.8776 81.1989 31.9245C81.0609 31.7148 80.907 31.5159 80.7372 31.3301L67.4972 14.2588H89.3498C95.7018 14.2588 100.849 19.4062 100.849 25.7582C100.849 28.1462 100.122 30.3643 98.8751 32.2031L80.838 55.4618C79.0523 57.5181 76.4203 58.8156 73.4831 58.8156C70.5326 58.8156 67.8899 57.5022 66.1042 55.43L56.8204 43.461L47.5126 55.4618C45.727 57.5181 43.0949 58.8156 40.1577 58.8156C37.2072 58.8156 34.5646 57.5022 32.7789 55.43L0.849121 14.2588L11.8126 0.12207L22.7759 14.2588L40.3036 36.8569C40.4363 37.0559 40.5822 37.2443 40.7414 37.4221C41.5666 38.3295 42.7579 38.8973 44.0819 38.8973C47.701 38.8973 49.7918 34.8749 47.8708 31.9218C47.7328 31.7122 47.5789 31.5132 47.4091 31.3275L34.1692 14.2562L45.1406 0.124726Z" fill="#FF014F"/>
</svg>
